<svg width="190" height="228" viewBox="0 0 190 228" fill="none" xmlns="http://www.w3.org/2000/svg">
<path d="M90.3675 75.27C99.5715 75.27 106.241 75.855 110.375 77.025C114.587 78.117 117.59 79.443 119.384 81.003C123.362 84.435 125.351 89.7 125.351 96.798C125.351 102.102 122.504 107.133 116.81 111.891C124.064 115.557 127.691 122.382 127.691 132.366C127.691 140.166 125.117 145.977 119.969 149.799C114.899 153.543 107.294 155.61 97.1535 156H63.8085L62.6385 146.289C63.6525 144.963 65.7975 143.676 69.0735 142.428V88.959C65.8755 87.789 63.7305 86.463 62.6385 84.981L63.8085 75.27H90.3675ZM96.3345 121.017H85.9215V143.247H93.9945C99.2985 143.247 103.316 142.467 106.046 140.907C108.776 139.347 110.141 136.539 110.141 132.483C110.141 128.427 109.049 125.502 106.865 123.708C104.759 121.914 101.249 121.017 96.3345 121.017ZM92.0055 88.023H85.9215V108.264H95.5155C99.4935 108.264 102.536 107.25 104.642 105.222C106.748 103.194 107.801 100.737 107.801 97.851C107.801 94.887 107.06 92.664 105.578 91.182C104.096 89.7 102.38 88.803 100.43 88.491C98.4795 88.179 95.6715 88.023 92.0055 88.023Z" fill="#150940"/>
<path d="M147.064 73.153V76.442L145.615 76.626C145.416 76.4727 145.224 76.1507 145.04 75.66H142.28V86.332C142.893 86.5773 143.315 86.8303 143.545 87.091L143.315 89H137.933L137.703 87.091C137.902 86.8303 138.324 86.5773 138.968 86.332V75.66H136.208C136.024 76.1507 135.832 76.4727 135.633 76.626L134.184 76.442V73.153H147.064ZM143.665 97.329C142.5 97.329 141.695 97.5513 141.25 97.996V103.263C142.492 103.493 143.343 103.815 143.803 104.229L143.573 106H136.995L136.765 104.229C136.98 103.938 137.402 103.677 138.03 103.447V97.053C137.494 96.869 137.072 96.6083 136.765 96.271L136.995 94.5C137.839 94.316 138.598 94.224 139.272 94.224C139.947 94.224 140.507 94.2393 140.951 94.27V95.719C141.304 95.305 141.756 94.9677 142.308 94.707C142.86 94.431 143.359 94.293 143.803 94.293C144.263 94.293 144.578 94.3313 144.746 94.408L144.677 97.398C144.371 97.352 144.033 97.329 143.665 97.329ZM135.799 113.202C135.799 112.972 135.807 112.727 135.822 112.466C137.248 111.699 138.782 111.316 140.422 111.316C142.063 111.316 143.236 111.63 143.941 112.259C144.662 112.872 145.022 113.9 145.022 115.341V120.24C145.559 120.347 145.981 120.478 146.287 120.631V122.632C145.505 123 144.386 123.184 142.929 123.184C142.776 122.785 142.646 122.302 142.538 121.735C141.879 122.701 140.683 123.184 138.95 123.184C137.923 123.184 137.041 122.885 136.305 122.287C135.585 121.689 135.224 120.876 135.224 119.849C135.224 118.822 135.562 118.017 136.236 117.434C136.926 116.836 137.946 116.537 139.295 116.537H141.802V115.433C141.802 114.237 141.166 113.639 139.893 113.639C139.418 113.639 139.027 113.685 138.72 113.777C138.69 114.421 138.598 114.919 138.444 115.272H136.19C135.93 114.735 135.799 114.045 135.799 113.202ZM139.939 120.838C140.721 120.838 141.342 120.608 141.802 120.148V118.262H140.192C139.088 118.262 138.536 118.684 138.536 119.527C138.536 119.91 138.651 120.225 138.881 120.47C139.127 120.715 139.479 120.838 139.939 120.838ZM141.452 130.662C140.041 130.662 139.336 131.873 139.336 134.296C139.336 135.523 139.527 136.381 139.911 136.872C140.309 137.347 140.877 137.585 141.613 137.585C142.778 137.585 143.805 137.478 144.695 137.263L145.385 139.034C144.894 139.356 144.235 139.632 143.407 139.862C142.579 140.077 141.774 140.184 140.992 140.184C137.68 140.184 136.024 138.267 136.024 134.434C136.024 132.195 136.599 130.585 137.749 129.604C138.776 128.745 140.026 128.316 141.498 128.316C142.97 128.316 144.196 128.592 145.178 129.144C145.193 129.297 145.201 129.443 145.201 129.581C145.201 130.455 145.001 131.283 144.603 132.065H142.579C142.364 131.682 142.234 131.222 142.188 130.685C142.004 130.67 141.758 130.662 141.452 130.662ZM134.653 140.67C135.512 140.471 136.309 140.371 137.045 140.371C137.781 140.371 138.402 140.394 138.908 140.44V154.447C139.506 154.677 139.928 154.938 140.173 155.229L139.943 157H134.653L134.423 155.229C134.638 154.938 135.059 154.677 135.688 154.447V143.223C135.151 143.039 134.73 142.778 134.423 142.441L134.653 140.67ZM143.186 157L139.115 151.043L141.645 147.754C141.384 147.601 141.2 147.44 141.093 147.271L141.323 145.5H146.383L146.613 147.271C146.276 147.7 145.639 148.038 144.704 148.283L142.496 150.813L145.095 154.24C146.046 154.455 146.713 154.784 147.096 155.229L146.866 157H143.186Z" fill="#150940"/>
</svg>
