<svg width="35" height="42" viewBox="0 0 35 42" fill="none" xmlns="http://www.w3.org/2000/svg">
<path d="M16.3122 11.3C18.6722 11.3 20.3822 11.45 21.4422 11.75C22.5222 12.03 23.2922 12.37 23.7522 12.77C24.7722 13.65 25.2822 15 25.2822 16.82C25.2822 18.18 24.5522 19.47 23.0922 20.69C24.9522 21.63 25.8822 23.38 25.8822 25.94C25.8822 27.94 25.2222 29.43 23.9022 30.41C22.6022 31.37 20.6522 31.9 18.0522 32H9.50219L9.20219 29.51C9.46219 29.17 10.0122 28.84 10.8522 28.52V14.81C10.0322 14.51 9.48219 14.17 9.20219 13.79L9.50219 11.3H16.3122ZM17.8422 23.03H15.1722V28.73H17.2422C18.6022 28.73 19.6322 28.53 20.3322 28.13C21.0322 27.73 21.3822 27.01 21.3822 25.97C21.3822 24.93 21.1022 24.18 20.5422 23.72C20.0022 23.26 19.1022 23.03 17.8422 23.03ZM16.7322 14.57H15.1722V19.76H17.6322C18.6522 19.76 19.4322 19.5 19.9722 18.98C20.5122 18.46 20.7822 17.83 20.7822 17.09C20.7822 16.33 20.5922 15.76 20.2122 15.38C19.8322 15 19.3922 14.77 18.8922 14.69C18.3922 14.61 17.6722 14.57 16.7322 14.57Z" fill="#150940"/>
<path d="M31.1795 11.866V12.724L30.8015 12.772C30.7495 12.732 30.6995 12.648 30.6515 12.52H29.9315V15.304C30.0915 15.368 30.2015 15.434 30.2615 15.502L30.2015 16H28.7975L28.7375 15.502C28.7895 15.434 28.8995 15.368 29.0675 15.304V12.52H28.3475C28.2995 12.648 28.2495 12.732 28.1975 12.772L27.8195 12.724V11.866H31.1795ZM30.2929 17.738C29.9889 17.738 29.7789 17.796 29.6629 17.912V19.286C29.9869 19.346 30.2089 19.43 30.3289 19.538L30.2689 20H28.5529L28.4929 19.538C28.5489 19.462 28.6589 19.394 28.8229 19.334V17.666C28.6829 17.618 28.5729 17.55 28.4929 17.462L28.5529 17C28.7729 16.952 28.9709 16.928 29.1469 16.928C29.3229 16.928 29.4689 16.932 29.5849 16.94V17.318C29.6769 17.21 29.7949 17.122 29.9389 17.054C30.0829 16.982 30.2129 16.946 30.3289 16.946C30.4489 16.946 30.5309 16.956 30.5749 16.976L30.5569 17.756C30.4769 17.744 30.3889 17.738 30.2929 17.738ZM28.2408 21.444C28.2408 21.384 28.2428 21.32 28.2468 21.252C28.6188 21.052 29.0188 20.952 29.4468 20.952C29.8748 20.952 30.1808 21.034 30.3648 21.198C30.5528 21.358 30.6468 21.626 30.6468 22.002V23.28C30.7868 23.308 30.8968 23.342 30.9768 23.382V23.904C30.7728 24 30.4808 24.048 30.1008 24.048C30.0608 23.944 30.0268 23.818 29.9988 23.67C29.8268 23.922 29.5148 24.048 29.0628 24.048C28.7948 24.048 28.5648 23.97 28.3728 23.814C28.1848 23.658 28.0908 23.446 28.0908 23.178C28.0908 22.91 28.1788 22.7 28.3548 22.548C28.5348 22.392 28.8008 22.314 29.1528 22.314H29.8068V22.026C29.8068 21.714 29.6408 21.558 29.3088 21.558C29.1848 21.558 29.0828 21.57 29.0028 21.594C28.9948 21.762 28.9708 21.892 28.9308 21.984H28.3428C28.2748 21.844 28.2408 21.664 28.2408 21.444ZM29.3208 23.436C29.5248 23.436 29.6868 23.376 29.8068 23.256V22.764H29.3868C29.0988 22.764 28.9548 22.874 28.9548 23.094C28.9548 23.194 28.9848 23.276 29.0448 23.34C29.1088 23.404 29.2008 23.436 29.3208 23.436ZM29.7154 25.564C29.3474 25.564 29.1634 25.88 29.1634 26.512C29.1634 26.832 29.2134 27.056 29.3134 27.184C29.4174 27.308 29.5654 27.37 29.7574 27.37C30.0614 27.37 30.3294 27.342 30.5614 27.286L30.7414 27.748C30.6134 27.832 30.4414 27.904 30.2254 27.964C30.0094 28.02 29.7994 28.048 29.5954 28.048C28.7314 28.048 28.2994 27.548 28.2994 26.548C28.2994 25.964 28.4494 25.544 28.7494 25.288C29.0174 25.064 29.3434 24.952 29.7274 24.952C30.1114 24.952 30.4314 25.024 30.6874 25.168C30.6914 25.208 30.6934 25.246 30.6934 25.282C30.6934 25.51 30.6414 25.726 30.5374 25.93H30.0094C29.9534 25.83 29.9194 25.71 29.9074 25.57C29.8594 25.566 29.7954 25.564 29.7154 25.564ZM27.9419 27.74C28.1659 27.688 28.3739 27.662 28.5659 27.662C28.7579 27.662 28.9199 27.668 29.0519 27.68V31.334C29.2079 31.394 29.3179 31.462 29.3819 31.538L29.3219 32H27.9419L27.8819 31.538C27.9379 31.462 28.0479 31.394 28.2119 31.334V28.406C28.0719 28.358 27.9619 28.29 27.8819 28.202L27.9419 27.74ZM30.1679 32L29.1059 30.446L29.7659 29.588C29.6979 29.548 29.6499 29.506 29.6219 29.462L29.6819 29H31.0019L31.0619 29.462C30.9739 29.574 30.8079 29.662 30.5639 29.726L29.9879 30.386L30.6659 31.28C30.9139 31.336 31.0879 31.422 31.1879 31.538L31.1279 32H30.1679Z" fill="#150940"/>
</svg>
